<?xml version="1.0" standalone="no"?>
<!DOCTYPE svg PUBLIC "-//W3C//DTD SVG 20010904//EN"
 "http://www.w3.org/TR/2001/REC-SVG-20010904/DTD/svg10.dtd">
<svg version="1.0" xmlns="http://www.w3.org/2000/svg"
 width="640.000000pt" height="640.000000pt" viewBox="0 0 640.000000 640.000000"
 preserveAspectRatio="xMidYMid meet">

<g transform="translate(0.000000,640.000000) scale(0.100000,-0.100000)"
fill="#000000" stroke="none">
<path d="M5605 5574 c-27 -7 -79 -14 -115 -14 -36 0 -94 -8 -130 -16 -36 -9
-79 -16 -96 -15 -17 0 -46 -9 -65 -22 -39 -26 -141 -147 -164 -195 -13 -25
-21 -32 -33 -26 -56 24 -88 27 -113 11 -40 -26 -87 -116 -110 -209 l-21 -86
-107 67 c-161 102 -267 150 -366 168 -16 3 -35 10 -42 15 -30 24 -99 53 -241
99 -151 50 -153 50 -255 46 -143 -7 -223 -19 -307 -44 -19 -6 -73 -23 -120
-37 -47 -14 -119 -36 -160 -47 -41 -12 -88 -28 -103 -36 -15 -8 -63 -23 -107
-33 -66 -17 -89 -19 -147 -10 -186 28 -214 31 -223 25 -9 -5 -115 15 -192 37
-20 6 -67 8 -105 5 -56 -5 -87 -15 -177 -61 -61 -31 -115 -56 -121 -56 -21 0
-230 -82 -257 -101 -14 -11 -33 -19 -41 -19 -42 0 -264 -99 -293 -131 -9 -10
-26 -19 -36 -19 -26 0 -106 -48 -119 -71 -5 -10 -19 -19 -31 -19 -24 0 -82
-36 -139 -86 -20 -17 -60 -43 -90 -57 -30 -14 -63 -35 -73 -46 -11 -12 -33
-28 -49 -36 -75 -38 -313 -259 -408 -380 -112 -142 -230 -280 -270 -315 -15
-14 -62 -63 -103 -110 l-76 -85 0 -134 0 -133 47 63 c66 91 143 181 236 278
85 89 167 184 183 214 12 20 84 104 184 212 36 38 76 84 88 102 13 18 74 68
136 113 62 44 121 89 131 100 10 11 23 20 28 20 6 0 20 8 31 18 12 10 59 40
106 66 47 27 101 61 120 76 19 14 61 39 93 54 32 15 78 43 103 62 24 19 49 34
55 34 9 0 116 43 174 71 11 5 45 17 75 28 166 57 268 96 291 113 14 11 39 21
56 24 17 3 60 19 94 35 l63 31 76 -15 c41 -9 95 -18 120 -21 25 -3 90 -13 145
-21 55 -9 145 -18 199 -20 83 -4 107 -1 144 15 25 11 52 20 62 20 9 0 43 9 76
20 32 12 90 28 129 36 38 8 76 21 85 29 9 8 32 18 51 21 19 4 43 12 54 17 33
18 190 46 297 53 73 6 86 3 220 -41 79 -26 161 -53 183 -61 73 -23 169 -64
227 -94 31 -17 64 -30 72 -30 9 0 42 -18 73 -40 32 -22 96 -66 143 -97 47 -31
97 -66 112 -77 15 -12 51 -37 79 -56 28 -19 80 -59 115 -88 35 -28 80 -61 101
-73 21 -11 49 -31 63 -44 14 -13 46 -36 71 -52 96 -59 164 -107 172 -120 4 -7
25 -22 46 -33 21 -10 50 -33 65 -50 14 -17 59 -59 98 -92 40 -33 93 -80 118
-104 25 -23 59 -56 76 -71 71 -63 127 -119 157 -156 34 -42 74 -67 106 -67 29
0 61 47 61 88 0 31 -9 44 -76 106 -42 39 -127 121 -189 181 -112 109 -251 232
-298 264 -86 57 -104 71 -122 91 -11 12 -33 29 -50 37 -16 9 -56 36 -87 60
-32 24 -73 50 -93 59 -19 8 -35 18 -35 22 0 5 -19 22 -42 40 -24 17 -80 59
-125 94 -45 35 -89 68 -98 73 -14 9 -13 20 11 116 15 59 35 117 44 129 l17 22
49 -26 c66 -36 141 -91 205 -152 47 -44 63 -52 119 -63 119 -23 165 -35 192
-48 15 -7 37 -13 50 -13 29 -1 103 -51 103 -70 0 -9 -13 -17 -30 -20 -16 -3
-46 -13 -65 -22 -19 -9 -49 -19 -67 -23 -36 -7 -73 -59 -73 -101 0 -25 32 -64
53 -64 6 0 31 18 54 39 25 24 63 45 97 56 30 10 70 28 88 40 l32 22 47 -33
c26 -18 68 -44 95 -57 27 -14 67 -44 89 -67 22 -23 58 -55 81 -70 27 -19 44
-41 53 -68 13 -38 12 -44 -18 -107 -38 -82 -40 -112 -7 -126 38 -18 76 7 111
73 17 31 34 57 38 58 5 1 39 -21 76 -49 37 -28 71 -51 74 -51 4 0 7 31 7 68
l0 69 -46 33 c-25 18 -61 40 -79 49 -18 9 -54 42 -80 75 -55 67 -224 205 -297
242 -28 14 -72 48 -99 76 -26 27 -63 58 -81 68 -109 59 -158 80 -184 80 -16 0
-45 8 -64 19 -19 10 -64 23 -100 29 -58 10 -69 16 -105 56 -22 24 -58 55 -80
69 -70 43 -72 49 -31 109 80 119 92 127 191 144 50 8 125 19 168 24 42 5 86
14 96 19 23 13 90 12 116 -2 21 -11 39 -15 170 -40 147 -28 194 -31 216 -11
21 19 25 67 7 81 -16 12 -107 32 -173 38 -27 2 -81 13 -120 23 -100 28 -162
32 -220 16z"/>
<path d="M6172 5460 c-12 -12 -22 -27 -22 -34 0 -26 40 -63 82 -75 24 -7 71
-28 106 -47 l62 -34 0 68 c0 77 7 70 -107 117 -75 30 -93 31 -121 5z"/>
<path d="M3710 3891 c-16 -4 -32 -21 -45 -46 -18 -37 -20 -62 -20 -380 -1
-187 3 -367 7 -400 5 -33 11 -89 12 -125 2 -36 9 -78 15 -93 6 -16 11 -52 10
-80 0 -29 -3 -45 -6 -37 -3 8 -14 34 -24 57 -11 23 -19 51 -19 62 0 11 -4 31
-9 44 -22 57 -62 273 -81 432 -16 133 -33 165 -90 165 -34 0 -81 -29 -79 -48
2 -9 0 -26 -4 -37 -22 -65 -27 -512 -8 -641 6 -44 19 -126 27 -184 20 -139 28
-186 43 -240 7 -25 19 -72 28 -105 40 -160 108 -332 160 -407 14 -21 29 -35
34 -33 4 3 20 -11 35 -31 35 -45 24 -54 -71 -54 -134 0 -437 36 -510 62 -16 5
-48 14 -70 19 -256 55 -458 147 -600 275 -86 76 -110 89 -153 79 -25 -5 -30
-14 -45 -69 -9 -36 -17 -89 -17 -120 0 -83 -23 -76 -111 36 -39 49 -130 243
-136 288 l-6 40 79 0 c73 -1 94 -6 181 -41 44 -18 84 -3 94 34 23 84 -68 131
-281 145 l-105 7 -7 50 c-37 259 -54 795 -28 885 5 19 10 55 10 80 0 27 12 73
30 115 46 108 48 129 12 165 -17 16 -36 30 -44 30 -21 0 -78 -39 -84 -58 -3
-9 -14 -37 -25 -62 -10 -25 -25 -78 -33 -118 -8 -41 -16 -75 -18 -76 -2 -2
-25 -18 -53 -36 -85 -57 -176 -134 -274 -230 -87 -87 -267 -320 -305 -395 -13
-28 -35 -60 -49 -73 -13 -12 -36 -50 -51 -85 -16 -34 -43 -96 -62 -137 -18
-41 -45 -115 -60 -165 -14 -49 -33 -109 -40 -133 -8 -23 -14 -51 -14 -62 0
-24 -38 -48 -44 -28 -2 7 -11 36 -19 63 -9 28 -23 104 -33 170 -18 131 -35
165 -84 165 -38 0 -56 -18 -80 -80 -28 -70 -37 -129 -51 -315 -15 -208 -17
-307 -9 -400 17 -174 95 -424 175 -552 l26 -43 -38 0 c-22 0 -56 -11 -80 -24
l-41 -24 -12 29 c-14 33 -39 43 -86 35 -39 -8 -49 -23 -58 -86 -5 -36 -2 -51
14 -75 11 -16 20 -36 20 -43 0 -7 10 -26 22 -43 l22 -30 -40 -37 c-62 -56 -87
-112 -79 -176 10 -73 41 -108 138 -156 46 -22 93 -40 105 -40 12 0 40 -7 62
-16 22 -9 46 -14 54 -11 8 3 33 -2 54 -11 38 -16 40 -19 46 -72 4 -30 12 -72
18 -92 10 -35 9 -39 -20 -66 -35 -32 -55 -94 -50 -155 l3 -42 78 -3 c66 -2 77
-1 77 14 0 11 5 14 18 9 9 -3 41 -8 71 -11 41 -3 59 0 73 13 17 16 21 15 64
-5 39 -20 61 -22 190 -22 129 0 145 2 151 18 25 69 164 220 227 247 92 39 214
77 291 91 109 19 166 8 242 -46 64 -46 163 -135 163 -148 0 -5 6 -15 14 -21 8
-7 17 -25 21 -41 3 -15 19 -39 36 -54 16 -14 29 -31 29 -36 0 -6 29 -10 65
-10 77 0 80 7 41 92 -14 29 -30 68 -36 85 -7 18 -16 33 -21 33 -5 0 -17 18
-28 40 l-19 40 71 -1 c107 -1 119 -7 134 -59 7 -25 20 -58 29 -73 9 -16 24
-56 33 -90 l18 -62 84 -2 c74 -3 82 -1 66 11 -25 19 -73 123 -88 188 -6 29
-11 87 -10 130 2 53 -2 78 -11 84 -7 4 -70 7 -140 5 -161 -3 -350 15 -403 39
-118 53 -253 63 -375 28 -80 -23 -128 -25 -465 -19 -238 4 -427 26 -575 68
-47 14 -112 31 -145 39 -123 30 -192 55 -218 80 -15 14 -27 27 -27 30 0 16 24
45 47 57 24 13 31 11 92 -24 73 -43 89 -46 131 -24 26 14 30 21 30 60 0 36 -5
47 -27 65 -30 24 -53 69 -53 106 0 27 16 30 45 8 36 -27 147 -54 250 -61 l102
-6 21 35 c12 20 22 45 22 56 0 25 -39 54 -109 81 -75 28 -113 61 -170 146 -87
131 -153 293 -195 481 -23 101 -21 149 6 174 12 11 24 20 27 20 13 0 51 -71
51 -95 0 -55 73 -91 118 -58 29 22 35 39 51 158 25 181 33 207 64 224 16 9 50
30 76 47 26 17 58 35 71 39 14 4 42 19 63 32 21 13 86 35 145 49 59 14 121 30
138 35 17 5 45 9 62 9 17 0 53 4 79 9 26 5 78 12 116 14 l67 5 0 -37 c1 -20 7
-47 15 -61 8 -14 14 -37 15 -51 0 -24 -7 -29 -70 -49 -99 -32 -181 -84 -269
-170 -112 -109 -160 -168 -188 -230 -14 -30 -34 -74 -44 -96 -11 -23 -24 -82
-30 -130 -19 -162 22 -272 148 -400 68 -69 86 -82 138 -97 124 -35 200 -45
432 -54 257 -9 387 26 532 144 106 86 154 178 164 309 3 44 11 94 17 110 13
33 6 110 -17 186 -8 28 -12 52 -10 55 3 2 17 -7 32 -21 15 -14 44 -28 64 -32
20 -3 50 -12 68 -20 17 -8 47 -14 68 -14 20 0 48 -6 63 -14 54 -28 286 -78
385 -84 l97 -5 0 -37 c0 -69 72 -246 140 -345 16 -23 47 -58 71 -79 39 -36
172 -106 243 -128 36 -11 250 -44 376 -58 85 -10 213 0 267 21 13 5 40 9 60 9
19 0 47 6 61 13 15 8 45 23 66 33 22 10 47 32 55 48 9 17 28 41 42 55 24 24
61 81 101 155 20 36 22 22 8 -60 -19 -110 -32 -169 -46 -199 -8 -16 -21 -58
-29 -92 -9 -35 -30 -89 -49 -120 -18 -32 -36 -71 -40 -87 -4 -16 -16 -41 -27
-54 -10 -14 -19 -33 -19 -43 0 -15 -8 -19 -36 -19 -20 0 -57 -7 -83 -15 -83
-25 -274 -73 -346 -86 -38 -7 -140 -13 -225 -15 -179 -3 -254 -9 -292 -25 -15
-6 -34 -9 -41 -6 -24 9 -186 -21 -220 -41 -39 -23 -80 -56 -115 -92 -150 -157
-217 -221 -260 -250 -28 -19 -52 -38 -52 -42 0 -5 48 -8 106 -8 l106 0 122
125 c105 108 146 141 146 120 0 -3 -13 -29 -29 -58 -21 -36 -32 -73 -37 -120
l-7 -67 75 0 76 0 11 44 c23 93 72 156 152 196 95 49 210 73 307 66 91 -7 119
-18 200 -79 41 -31 64 -61 105 -133 l52 -94 79 0 c76 0 78 1 72 23 -3 12 -6
30 -6 39 0 10 -13 30 -30 45 -16 14 -30 34 -30 43 0 10 -7 23 -16 31 -8 7 -22
26 -31 43 -9 17 -33 52 -55 78 -37 45 -38 47 -19 57 11 6 31 11 44 11 14 0 42
7 63 16 23 10 49 13 68 9 17 -3 42 -7 56 -9 47 -7 97 -34 136 -74 78 -80 101
-119 123 -204 12 -46 24 -89 26 -96 3 -8 25 -12 61 -12 l56 0 -7 47 c-16 107
-60 213 -116 278 -83 95 -81 93 -60 104 11 6 26 11 33 11 7 0 34 11 59 24 25
14 59 26 75 28 29 3 29 2 29 -47 1 -28 9 -67 20 -90 19 -38 22 -40 67 -40 25
0 49 -3 52 -6 3 -3 1 -21 -5 -40 -14 -43 -46 -258 -40 -264 2 -3 33 -5 68 -5
l64 0 16 37 c8 21 20 72 25 113 13 102 46 210 67 217 55 17 81 32 121 68 25
22 65 57 90 77 25 19 100 91 168 159 158 160 159 161 170 190 5 13 30 55 56
93 25 38 46 78 46 89 0 12 11 32 24 46 25 27 76 120 76 140 0 18 14 11 38 -19
25 -32 59 -128 73 -210 22 -127 28 -364 11 -445 -13 -58 -25 -148 -41 -305 -5
-41 -14 -96 -20 -121 -7 -25 -11 -63 -9 -85 l3 -39 76 -3 76 -3 -1 93 c0 51 6
113 13 138 7 25 15 68 17 95 2 28 8 79 15 115 6 36 13 175 15 309 5 225 3 248
-14 290 -11 25 -22 70 -26 99 -7 51 -6 52 19 52 24 0 25 2 25 66 0 72 1 71
-75 121 -22 14 -62 46 -90 70 -27 23 -58 43 -68 43 -39 0 -127 -60 -127 -87 0
-24 -110 -251 -143 -293 -10 -14 -25 -38 -33 -55 -54 -112 -81 -145 -234 -294
-88 -86 -175 -168 -194 -184 -43 -35 -129 -73 -183 -82 l-43 -7 -1 39 c-1 21
-1 67 0 103 2 60 0 68 -28 98 -44 47 -80 44 -134 -11 -40 -41 -158 -130 -164
-123 -3 2 33 74 62 126 8 14 15 35 15 47 0 12 11 39 25 59 15 22 25 51 25 73
0 20 7 45 15 55 8 11 15 30 15 43 0 12 11 66 24 120 33 137 46 229 46 332 0
110 -15 182 -52 242 -15 25 -28 50 -28 55 0 5 -23 49 -50 98 -28 49 -50 93
-50 99 0 5 -18 51 -41 102 -23 51 -40 98 -37 105 2 6 30 -7 65 -30 34 -22 68
-40 76 -40 8 0 22 -9 31 -19 41 -45 110 -33 121 21 10 44 -3 67 -53 92 -26 13
-72 40 -102 60 -30 20 -73 42 -95 49 -22 6 -57 21 -78 32 -35 19 -40 27 -72
125 -57 173 -103 331 -115 393 -6 31 -22 70 -34 85 -23 27 -27 49 -40 237 -8
119 -28 205 -54 230 -30 30 -51 31 -85 5 -34 -27 -40 -63 -26 -146 6 -38 13
-96 14 -129 1 -33 8 -114 14 -180 10 -97 15 -306 11 -487 0 -27 -1 -27 -52
-21 -65 7 -94 24 -111 66 -8 17 -21 38 -31 46 -9 7 -25 34 -36 59 -11 25 -29
52 -40 59 -11 8 -20 21 -20 29 0 19 -56 131 -86 171 -13 17 -24 43 -24 57 0
14 -4 27 -9 30 -5 3 -12 18 -16 33 -3 16 -13 42 -20 58 -25 57 -66 190 -75
242 -4 28 -11 57 -15 63 -4 6 -11 36 -15 68 -21 136 -41 240 -55 286 -8 27
-15 69 -15 92 0 79 -38 119 -100 105z m-1964 -885 c2 -146 8 -276 13 -289 14
-37 25 -253 13 -260 -5 -4 -59 -11 -118 -16 -123 -11 -346 -53 -414 -78 -25
-9 -78 -34 -118 -56 -40 -22 -75 -37 -77 -35 -6 6 20 98 50 173 52 131 136
269 272 447 27 35 56 74 65 88 8 14 57 66 108 115 50 50 114 112 141 139 27
27 52 46 55 43 3 -3 8 -125 10 -271z m2093 0 c25 -40 34 -131 13 -131 -18 0
-42 69 -42 123 0 23 2 42 4 42 2 0 14 -15 25 -34z m95 -251 c9 -14 35 -60 57
-103 22 -42 52 -88 65 -103 13 -14 24 -32 24 -40 0 -8 7 -24 15 -35 19 -26 19
-36 -2 -30 -16 5 -73 -2 -159 -20 -26 -5 -32 -2 -42 21 -7 14 -12 40 -12 58
-1 18 -7 61 -15 97 -8 36 -14 91 -15 123 l0 57 34 0 c25 0 38 -6 50 -25z
m-344 -255 c41 -135 70 -212 119 -314 26 -56 51 -117 55 -137 6 -31 3 -37 -19
-47 -22 -10 -27 -9 -40 11 -40 62 -134 402 -159 582 l-6 40 14 -30 c7 -17 23
-64 36 -105z m1010 -116 c0 -8 -5 -12 -10 -9 -6 4 -8 11 -5 16 9 14 15 11 15
-7z m-346 -150 c36 -48 66 -92 66 -98 0 -8 -42 -11 -137 -11 -76 0 -153 -4
-171 -9 -31 -8 -33 -7 -51 35 -10 24 -22 65 -25 91 l-7 46 42 7 c36 6 146 19
200 24 10 0 44 -34 83 -85z m388 -11 c10 -5 49 -91 73 -158 10 -27 23 -57 30
-65 7 -8 20 -40 30 -71 9 -31 30 -80 46 -110 93 -174 130 -259 127 -286 -3
-24 -6 -20 -21 28 -9 30 -28 72 -42 93 -14 20 -25 40 -25 44 0 10 -70 114
-100 148 -58 66 -138 139 -182 166 -27 17 -48 33 -48 36 1 4 9 32 20 62 11 30
19 72 20 93 0 38 0 39 33 32 17 -4 35 -9 39 -12z m315 -790 c-3 -10 -5 -4 -5
12 0 17 2 24 5 18 2 -7 2 -21 0 -30z m0 -90 c-3 -10 -5 -4 -5 12 0 17 2 24 5
18 2 -7 2 -21 0 -30z m-2598 -14 c67 -15 121 -40 121 -56 0 -21 -71 -86 -134
-121 -108 -61 -339 -84 -531 -53 -33 6 -99 13 -147 17 -73 6 -91 10 -109 30
l-21 23 23 29 c40 48 59 58 194 98 104 30 154 39 250 45 139 8 289 3 354 -12z
m1938 10 c43 -6 83 -15 88 -19 21 -15 119 -42 182 -50 58 -7 71 -13 105 -47
34 -34 38 -42 29 -64 -16 -43 -69 -74 -151 -88 -41 -7 -88 -17 -105 -21 -27
-6 -170 1 -280 14 -92 11 -203 36 -245 54 -25 11 -60 23 -77 26 -32 7 -51 20
-115 83 -51 48 -49 67 9 87 26 9 58 16 72 16 14 0 31 4 38 8 20 13 368 14 450
1z m-3247 -964 c30 -8 72 -15 92 -15 52 0 54 -14 5 -36 -23 -10 -63 -33 -88
-51 -26 -17 -50 -29 -53 -26 -3 4 -6 20 -6 37 -1 17 -7 42 -15 56 -30 53 -21
58 65 35z m490 -44 c9 -1 1 -14 -22 -38 -50 -53 -106 -137 -134 -200 -23 -52
-24 -53 -51 -41 -16 6 -39 22 -53 34 -14 12 -41 29 -60 37 -19 9 -46 25 -60
36 -23 18 -24 21 -8 38 10 10 34 25 55 32 21 8 50 22 65 33 15 10 51 31 80 47
52 27 75 30 188 22z"/>
<path d="M5532 3754 c-15 -11 -22 -25 -22 -50 0 -41 14 -65 93 -158 32 -37 63
-79 69 -92 6 -13 17 -24 24 -24 7 0 24 -21 37 -47 13 -27 33 -66 45 -88 12
-22 29 -58 39 -80 10 -22 30 -62 45 -90 26 -49 60 -122 100 -214 11 -25 26
-74 34 -109 7 -34 20 -72 28 -84 9 -12 16 -33 16 -46 0 -12 11 -48 24 -80 13
-31 27 -76 31 -99 3 -22 13 -49 20 -60 8 -10 15 -28 15 -41 0 -12 11 -39 24
-60 14 -21 27 -61 31 -92 4 -30 13 -62 20 -70 15 -17 45 -97 45 -121 0 -9 7
-22 15 -29 8 -7 15 -27 15 -46 0 -18 5 -36 10 -39 13 -8 63 -113 80 -167 26
-84 33 -53 28 133 -4 189 -12 224 -54 267 -8 7 -14 29 -14 49 0 20 -9 46 -20
60 -13 17 -20 41 -20 72 0 26 -6 55 -13 66 -7 11 -21 49 -31 85 -10 36 -33
110 -52 165 -19 55 -34 110 -34 122 0 11 -13 50 -28 85 -16 34 -31 79 -34 98
-7 43 -91 221 -112 239 -9 8 -16 23 -16 36 0 12 -13 36 -29 53 -16 17 -34 47
-40 66 -13 48 -74 156 -101 181 -12 11 -33 39 -47 62 -14 24 -29 43 -33 43 -5
0 -18 16 -30 35 -25 41 -85 85 -115 85 -11 0 -31 -7 -43 -16z"/>
<path d="M6114 3678 c-12 -5 -28 -21 -35 -35 -11 -21 -10 -29 6 -60 11 -20 39
-58 62 -84 24 -26 43 -54 43 -62 0 -8 23 -43 51 -78 53 -66 79 -114 79 -147 0
-11 7 -25 15 -32 8 -7 20 -30 27 -51 6 -22 17 -44 25 -50 11 -10 13 14 13 139
0 113 -3 152 -13 161 -8 6 -19 28 -25 49 -14 44 -77 146 -134 215 -42 49 -68
58 -114 35z"/>
<path d="M2166 2846 c-52 -19 -109 -67 -121 -101 -8 -23 -6 -30 14 -46 33 -27
47 -24 84 15 38 40 83 52 130 35 19 -6 46 -9 60 -5 22 5 27 12 27 36 0 60
-109 97 -194 66z"/>
<path d="M3159 1415 c-32 -33 -35 -34 -85 -29 -40 5 -57 2 -78 -12 l-28 -17
-33 36 c-40 43 -72 47 -103 14 -28 -30 -28 -41 4 -83 61 -80 143 -114 190 -79
14 11 35 13 81 8 61 -6 63 -5 94 28 45 47 69 90 69 120 0 59 -61 67 -111 14z"/>
<path d="M13 1333 c-18 -7 -19 -1337 -1 -1331 7 3 11 25 10 59 -1 29 -2 218
-2 418 0 391 5 456 57 646 39 146 40 168 8 193 -27 21 -47 26 -72 15z"/>
<path d="M2995 10 c-4 -6 6 -10 22 -10 22 0 25 2 13 10 -19 12 -27 12 -35 0z"/>
</g>
</svg>
